<svg width="120" height="41" viewBox="0 0 120 41" fill="none" xmlns="http://www.w3.org/2000/svg">
<path d="M120 5.28527H114.743V0H111.457V5.28527H106.2V8.58932H111.457V13.8746H114.743V8.58932H120V5.28527Z" fill="#1D1D1B"/>
<path d="M104.5 17.8962C105.77 17.8962 106.8 16.8609 106.8 15.5838C106.8 14.3067 105.77 13.2713 104.5 13.2713C103.23 13.2713 102.2 14.3067 102.2 15.5838C102.2 16.8609 103.23 17.8962 104.5 17.8962Z" fill="#1D1D1B"/>
<path d="M25.4111 22.1902C24.002 22.1902 22.6213 22.6793 21.8043 23.8338H21.7475V15.6843L17.8 16.9424V36.7978H21.7475V29.7925C21.7475 28.0929 21.7759 25.411 24.1156 25.411C26.3458 25.411 26.2586 27.6017 26.2586 29.3033V36.7958H30.2V28.1551C30.2 24.8701 29.1336 22.1902 25.4111 22.1902Z" fill="#1D1D1B"/>
<path fill-rule="evenodd" clip-rule="evenodd" d="M76.6 29.8889C76.6 25.6483 78.8155 22.32 83.2706 22.32C87.7841 22.32 89.802 25.7055 89.8 29.9175V30.4003H80.7467C80.7467 32.1636 81.42 34.1561 83.4661 34.1561C84.7543 34.1561 85.5687 33.3583 86.1009 32.2495L89.7174 32.8469C88.7659 35.6351 86.3549 37.2 83.4681 37.2C79.2065 37.2 76.6 34.1295 76.6 29.8889ZM83.4963 25.1082C81.926 25.1082 81.0632 26.4726 80.8616 27.923H86.1029C85.9154 26.5013 85.0103 25.1082 83.4963 25.1082Z" fill="#1D1D1B"/>
<path d="M57.2094 22.32C55.7909 22.32 54.419 22.8046 53.6023 24.0614H53.5456V22.7738H49.6V36.7978H53.5456V29.8526C53.5456 28.1686 53.5739 25.5113 55.9125 25.5113C58.1416 25.5113 58.0545 27.6819 58.0545 29.3679V36.7917H62V28.2302C62 24.9753 60.928 22.32 57.2094 22.32Z" fill="#1D1D1B"/>
<path fill-rule="evenodd" clip-rule="evenodd" d="M38.6848 22.32C40.1534 22.3205 41.5505 22.9635 42.5182 24.0841V22.7723H46.4V36.7436H42.5283V35.4625H42.4718C41.6304 36.5738 40.1717 37.2 38.7413 37.2C34.7021 37.2 32.4 33.4713 32.4 29.6873C32.4 25.9914 34.7283 22.32 38.6848 22.32ZM36.3746 29.7467C36.3746 31.6274 37.6114 33.6739 39.629 33.6739C41.6486 33.6739 42.9116 31.6233 42.9116 29.7467C42.9116 27.8701 41.6486 25.8481 39.629 25.8481C37.6094 25.8481 36.3746 27.866 36.3746 29.7467Z" fill="#1D1D1B"/>
<path d="M71.4382 25.5593C72.4359 25.569 73.3842 25.9954 74.0541 26.7355L76.2 24.0517C73.1819 21.5265 68.7208 21.7922 66.0232 24.6578C63.3256 27.5234 63.3256 31.9966 66.0232 34.8622C68.7208 37.7278 73.1819 37.9935 76.2 35.4683L74.0541 32.7824C73.3848 33.5234 72.4361 33.95 71.4382 33.9586C69.3516 33.9586 67.6614 32.0787 67.6614 29.759C67.6614 27.4392 69.3516 25.5593 71.4382 25.5593Z" fill="#1D1D1B"/>
<path d="M10.0073 21.3301C11.3621 21.3284 12.6767 21.7958 13.7321 22.6543L16 19.7874C12.0419 16.4432 6.19128 16.795 2.65341 20.59C-0.884469 24.385 -0.884469 30.309 2.65341 34.104C6.19128 37.899 12.0419 38.2508 16 34.9066L13.728 32.0397C11.6893 33.6851 8.82774 33.7957 6.67075 32.3123C4.51377 30.8289 3.56497 28.0979 4.33083 25.5771C5.09668 23.0563 7.3984 21.3342 10.0073 21.3301Z" fill="#1D1D1B"/>
</svg>
